<?xml version="1.0" encoding="utf-8"?>
<!-- Generator: Adobe Adobe Illustrator 29.2.0, SVG Export Plug-In . SVG Version: 6.00 Build 0)  -->
<svg version="1.1" id="Layer_1" xmlns="http://www.w3.org/2000/svg" xmlns:xlink="http://www.w3.org/1999/xlink" x="0px" y="0px"
	 viewBox="0 0 2821.58 2859.76" style="enable-background:new 0 0 2821.58 2859.76;" xml:space="preserve">
<style type="text/css">
	.st0{fill:none;stroke:#000000;stroke-linecap:round;stroke-linejoin:round;stroke-miterlimit:10;}
</style>
<g>
	<path class="st0" d="M1331.3,709.36c1.66-5.12-4.41-5.96-6.01-6.07c-28.51-2.04-47.63-22.13-71.9-32.05
		c-15.28-6.24-31.74-10.01-47.75-14.64c-31.84-9.2-64.82-14.36-97.54-18.4c-25.36-3.13-50.85-7.1-76.8-7.6
		c-49.11-0.94-98.05-0.79-147.05,3.27c-25.86,2.15-49.22,13.91-75.19,14.73c-19.45,0.61-36.54,9.3-54.73,14.29
		c-24.41,6.7-48.9,13.16-73.5,19.19c-26.78,6.56-50.96,18.07-75.47,29.97c-46.18,22.42-89.24,48.85-131.59,76.96
		c-59.97,39.79-101.39,94.5-143.33,149.08c-29.19,37.98-55.43,77.74-76.7,120.05c-17.7,35.2-30.93,71.91-40.16,110.13
		c-5.9,24.46-8.75,49.14-13.01,73.71c-1.15,6.61,0.33,13.08,3.89,19.05c23.62-4.41,38.58-21.81,53.73-37.03
		c30.52-30.66,62.89-59.85,89.6-93.8c5.96-7.58,14.09-13.8,23.35-19.06c9.85-5.59,15.89-15.38,10.56-27.51"/>
	<path class="st0" d="M2357.82,1203.6c-3.79-12.59-0.11-25.38-2.58-38.52c-6.57-35.03-14.15-69.83-25.15-103.72
		c-15.32-47.21-35.43-92.89-69.91-131.11c-39.84-44.15-80.9-87.36-129.72-123.31c-18.81-13.85-38.08-27.2-56.3-41.7
		c-29.44-23.43-64.35-37.15-99.25-51.07c-29.11-11.61-56.76-26.85-87.32-34.71c-18.26-4.7-37.11-8.27-56.23-10.41
		c-19.41-2.17-38.83-4.99-58.1-8.02c-32.37-5.08-64.97-6.54-97.51-7.31c-56.03-1.34-111.82,1.97-167.63,8.42
		c-23.71,2.74-48.02,5.04-71.51,8.36c-30.28,4.27-61.91,8.43-89.12,24.42c-1.89,1.11-4.51,1.14-6.79,1.68"/>
	<path class="st0" d="M2099.7,51.98c-8.96,1.1-15.67-1.83-22.43-7.79c-13.24-11.68-30.93-15.45-47.57-21.23
		c-20.61-7.16-42.33-5.65-63.39-9.1c-38.77-6.36-77.26-3.46-116.31,2.2c-39.2,5.68-77.18,13.37-114.55,25.97
		c-48.03,16.19-93.02,38.1-138.27,59.65c-25.89,12.33-49.5,28.74-77,38.23c-9.28,3.2-11.82,12.34-18.72,17.71
		c-49.37,38.43-88.86,85.3-124.22,134.68c-26.23,36.62-46.48,76.87-60.86,119.45c-5.51,16.31-15.04,31.34-20.4,48.02
		c-7.63,23.74-12.55,48-18.26,72.11c-1.58,6.68-2.21,12.6-10.53,14.34"/>
	<path class="st0" d="M1812.51,2612.74c-10.4,4.11-21.26,4.69-32.48,4.96c-76.36,1.83-152.7,4.86-229.07,5.94
		c-42.14,0.59-84.45-0.37-126.46-3.38c-31.34-2.24-62.92-7.07-94.01-5.17c-44.45,2.72-89.32,1.08-133.39,8.83
		c-1.1,0.2-2.28,0.08-3.42,0.02c-61.2-3.54-121.81,8.3-182.9,6.18c-21.89-0.76-43.13,4.4-64.98,3.62
		c-25.66-0.91-51.09-4.79-76.92-3.54c-50.7,2.46-101.3,7.48-152.13,6.33c-19.94-0.45-39.85-5.23-59.81-2.81
		c-31.85,3.86-64,1.79-95.96,8.54c-24.71,5.21-50.71,7.12-76.67,8.21c-34.22,1.45-68.45,3.25-102.59,1.91
		c-34.24-1.34-68.73-1.34-102.58-7.69c-26.54-4.98-52.36,3.7-78.64,3.31c-1.7-0.03-3.46,1.54-5.12,1.45
		c-50.5-2.98-100.09,8.77-150.44,8.05c-14.82-0.21-29.63-3.57-44.45,0.03"/>
	<path class="st0" d="M1166.34,741.35c-3.19,10.88-13.28,15.45-22.26,20.73c-68.43,40.23-132.35,85.63-190.05,138.9
		c-21.77,20.1-44.7,39.19-66.31,59.52c-40.19,37.81-71.32,81.01-96.69,129.11c-17.63,33.43-34.92,66.95-49.94,101.35
		c-12.24,28.03-23.97,56.85-30.35,86.37c-7.03,32.51-15.19,65.35-14.44,99.01c0.73,33.05-2.39,66.19,1.75,99.16
		c3.55,28.3,7.29,56.61,12.17,84.74c1.91,11.02,7.14,21.54,10.88,32.33c9.36-0.94,12.77-6.89,16.22-13.07
		c18.61-33.41,41.79-64.65,54.67-100.79c6.62-18.56,17.42-35.86,18.87-55.98c0.36-4.97,9.03-6.41,6.77-12.8"/>
	<path class="st0" d="M1855.25,1670.65c-5.88,1.01-11.89,0.48-17.18,4.7c-61.64,49.23-133.9,82.01-204.78,117.31
		c-57.37,28.57-117.14,51.89-176.65,75.62c-37.62,15-76.82,28.01-116.2,38.16c-43.98,11.33-86.08,27.28-129.43,39.97
		c-38.52,11.28-76.73,22.95-116.47,29.71c-35.3,6-71.54,9.02-105.62,18.73c-18.27,5.2-39.72-1.13-55.06,13.29"/>
	<path class="st0" d="M1503.1,1565.08c-5.83-3.74-10.23-7.99-14.03-14.2c-35.66-58.31-89-99.45-155.64-120.52
		c-46.33-14.65-96.19-25.06-146.52-16.97c-46.31,7.44-90.5,21.73-129.83,46.32c-37.8,23.63-71.24,51.54-94.33,89.29
		c-21.69,35.45-32.63,73.76-39.22,113.65c-5.85,35.37,0.56,69.51,7.84,104.13c3.11,14.79,1.72,29.53,17.89,38.24"/>
	<path class="st0" d="M2564.66,2612.74c-0.35-2.19,1.28-5.24-1.76-6.27c-3.2-1.09-6.79-1.63-10.21-1.66
		c-31.38-0.21-63.03-3.67-93.97-2.28c-57.02,2.56-114.04,1.75-171.02,3.08c-29.46,0.69-59.24-0.24-88.87-0.82
		c-55.97-1.1-111.44,10.91-167.51,6.21c-29.04-2.44-57.72-7.91-87.21-6.41c-43.34,2.2-86.41,8.29-129.91,8.15"/>
	<path class="st0" d="M2475.77,578.21c0.99-21.58-11.69-38.82-24.4-54.04c-53.38-63.91-123.89-106.96-203.14-137.49
		c-29.78-11.47-57.37-27.32-88.62-35.89c-33.69-9.24-67.96-15.14-102.69-16.87c-37.5-1.87-75.4-2.7-112.73,0.35
		c-26.81,2.19-53.86,6.12-80.67,10.73c-30.21,5.2-59.54,13.17-88.36,21.34c-54.84,15.54-105.65,40.33-154.35,69.2
		c-54.68,32.41-108.07,66.44-156.74,106.22c-41.99,34.32-82.98,69.95-113.4,114.68c-7.94,11.68-14.54,22.79-11.64,36.93
		c1.25,6.13-2.75,9.41-6.89,12.81"/>
	<path class="st0" d="M841.55,224.72c-38.83-8.41-77.66-13.16-118-10.18c-35.44,2.62-70.71,6.35-105.89,10.55
		c-23.63,2.82-47.08,8.2-70.06,14.28c-29.14,7.71-58.65,13.97-87.52,23c-25.89,8.09-51.74,16.87-76.28,27.12
		c-51.97,21.7-99.21,51.33-138.82,90.4c-2.5,2.47-4.7,5.23-6.79,8.02c-0.53,0.72-0.08,2.08-0.08,4.74
		c11.08,7.06,24.44,6.82,37.6,6.32c43.69-1.65,86.31-9.38,128.17-20.84c6.54-1.79,12.57-5.21,18.84-7.88
		c7.98-3.38,15.96-4.22,23.93,0"/>
	<path class="st0" d="M1752.68,1798.61c7.15,11.92,10.5,24.88,10.15,38.38c-0.97,36.91,7.36,72.65,12.81,108.9
		c4.96,32.96,11.63,65.73,15.48,98.96c4.75,41.05,10.45,81.97,12.95,123.24c1.55,25.58,2.3,51.32,4.44,76.7
		c1.98,23.43,0.67,47.06,5.05,70.57c4.17,22.43,4.71,45.82,3.59,68.65c-1.22,25.05-2.27,50.48-2.83,75.23
		c-0.78,34.43-10.31,69.28-0.54,104.04c2.35,8.35,0.75,18.37-1.61,27.01c-3.64,13.31,6.22,25.49,2.05,38.47"/>
	<path class="st0" d="M841.55,229.52c0.42-3.92-0.11-5.95,6.89-5.29c25.03,2.36,46.5,13.52,68.15,23.23
		c62.98,28.25,122.52,62.34,177.61,102.43c25.96,18.89,49.33,41.26,71.84,63.83c23.87,23.93,45.3,49.73,64.04,77.83
		c29.05,43.57,51.78,89.96,73.86,136.6c4.44,9.38,11.26,20.99,7.71,33.23"/>
	<path class="st0" d="M2547.57,2692.71c-28.6-1.64-57-5.87-85.36-8.93c-63.89-6.91-127.73-5.81-191.57-5.04
		c-58.72,0.7-117.39,4.93-176.08,7.5c-1.68,0.07-3.42-0.99-5.12-1.52"/>
	<path class="st0" d="M930.44,1785.81c-64.53,29.96-119.76,71.4-169.25,119.95c-24.73,24.26-48.77,49.09-66.56,78.43
		c-15.28,25.21-8.3,26.34,12.04,34.78c2.7,1.12,4.95,3.64,8.38,3.59c33.09-0.5,59.9,18.52,90.55,25.74
		c10.56,2.49,20.56,4.72,30.82-0.18"/>
	<path class="st0" d="M1780.03,541.42c1.3,15.38,14.52,25.62,19.34,39.83c5.13,15.12,2,22.21-14.18,24.33
		c-31.86,4.18-64.1,0.28-95.68,3.61c-37.02,3.9-74.27,1.6-111.43,7.71c-20.42,3.36-42.35,4.71-62.83,8.55
		c-25.35,4.76-50.91,11.49-73.9,24.41c-8.63,4.85-8.54,10.75-8.34,17.92"/>
	<path class="st0" d="M1515.07,1585.88c9.64-6.89,21.9-6.85,32.51-7.41c29.07-1.53,58.03-4.61,87.1-6.13
		c29.67-1.55,59.27-2.55,88.94-2.39c48.05,0.27,95.36,6.3,141.85,17.65c7.1,1.73,14.25,4.4,20.44,8.03
		c13.41,7.87,14.1,23.66,1.67,39.72c-4.72,6.1-10.68,11.28-15.55,17.48c-7.39,9.42-14.61,17.21-16.05,30.51
		c-1.41,12.93-15.64,21.99-25.02,31.78c-21.76,22.72-44.7,44.49-67.54,66.31c-38.09,36.37-80.32,67.39-125.33,95.44
		c-13.81,8.61-28.14,16.58-42.73,23.98c-25.05,12.7-47.03,26.34-60.6,52.51c-17.92,34.54-51.75,55.61-88.07,72.34
		c-64.17,29.55-131.75,45.84-203.36,50.37c-25.98,1.64-49.48-2.43-73.63-8.54c-4.12-1.04-7.95-2.71-9.99-5.18
		c-19.08-22.97-43.77-16.02-68.62-12.97c-23.2,2.85-46.74,4.27-69.95,6.68c-23.57,2.45-46.88-1.71-70.2,1.49
		c-9.66,1.32-17.41-0.75-22.56-10.88c-7.62-14.98-28.21-19.33-35.95-35.17c-0.91-1.85-7.71-2.18-11.53-1.63
		c-30.62,4.37-61.63,4.55-92.33,7.87c-8.1,0.88-16.3,1.7-22.23,7.97"/>
	<path class="st0" d="M1542.42,1934.56c-12.31-7.18-23.42,1.29-32.12,5.46c-37.31,17.89-76.06,30.91-116.37,41.71
		c-26.36,7.07-52.93,14.38-78.99,22.9c-19.37,6.34-39.62,10.61-59.79,14.34c-7.88,1.46-14.47,5.39-21.91,7.5
		c-24.9,7.06-51.86,6.25-75.43,17.7c-1.93,0.94-3.45,2.61-5.16,3.95"/>
	<path class="st0" d="M1197.11,2703.91c-59.07-0.28-117.55,6.02-176.11,12.51c-46.54,5.16-93.46,7.32-140.11,11.7
		c-17.66,1.66-35.21,4.3-53.02,4.58"/>
	<path class="st0" d="M2005.68,504.63c0.9,6.24,3.03,11.91,8.55,15.99c12.76,9.43,14.36,24.76,21.91,36.96
		c3.85,6.22-5.52,14.81-15.06,15.91c-13.99,1.62-27.67-1.37-40.96-3.68c-42.75-7.42-84.8-18.28-128.28-22.07
		c-11.58-1.01-22.52-5.13-34.07-7c-17.83-2.89-35.44-1.55-53.12-2.52"/>
	<path class="st0" d="M959.5,538.22c5.85,12.75,20.15,13.79,30.88,15.36c38.36,5.62,76.56,10.99,114.61,19.06
		c50.71,10.76,95.78,29.62,132.73,63.55c8.15,7.48,23.31,16.04,12.39,31.58"/>
	<path class="st0" d="M1771.48,888.51c-19.63,0.48-33.99-11.18-47.52-21.2c-40.77-30.19-82.54-58.96-126.92-84.25
		c-38.74-22.09-79.75-39.76-122.87-53.26c-6.67-2.09-10.38,1.51-15.52,1.96"/>
	<path class="st0" d="M1549.26,352.68c10.77,8.81,25.77,6.33,37.93,12.21c3.57,1.73,7.78,3.74,11.54,5.58
		c15.02,7.35,16.39,15.59,3.38,25.22c-14.65,10.84-31.75,18.63-48.02,26.84c-45.24,22.81-90.15,46.57-127.3,79.5
		c-35.29,31.28-69.1,65.36-79.24,112.96"/>
	<path class="st0" d="M1945.85,1717.03c17.04-22.51,30.82-46.2,37.93-73.5c8.53-32.77,4.33-62.4-17.39-89.67
		c-32.44-40.73-79.31-54.22-129.95-60.76"/>
	<path class="st0" d="M1459.51,829.32c13.81,14.04,15.54,33.25,22.09,49.93c8.65,22.05,16.97,44.44,24.87,66.85
		c17.44,49.48,36.22,98.52,51.99,148.55c6.15,19.51,16.45,38.21,23.07,57.82c7.76,23,17.25,45.42,24.82,68.52
		c8.9,27.13,15.03,55.25,25.84,81.45c12.36,29.96,19.31,60.88,28.1,91.51c11.2,39.02,19.06,78.73,28.01,118.23
		c4.13,18.21,10.63,36.13,14.8,54.5"/>
	<path class="st0" d="M2486.03,581.41c-43.02,2.08-77.89-19.47-114.4-35.44c-34.63-15.15-68.72-31.15-106.1-39.79
		c-9.73-2.25-18.94-2.93-25.52,1.19c-2.59,18.84,9.49,33.18,8.46,50.06c-0.68,11.27-5.86,15.06-17.16,12.85
		c-38.58-7.58-73.62-23.83-109.46-38.3c-32-12.91-64.46-25.24-99.14-30.2c-12.13-1.73-24.79-0.14-35.84-6.73"/>
	<path class="st0" d="M1774.9,827.73c15.5-6.99,26.26-1.03,37.86,9.35c36.88,32.99,69.2,69.69,102.54,105.63
		c15.81,17.04,33.77,32.36,51.21,48.02c3.92,3.52,9.53,9.95,14.89,6.12c5.82-4.17,13.4-7.98,14.28-17.14
		c1.25-12.88,4.42-25.6,6.52-38.42c0.91-5.55,4.21-9.42,8.61-12.79"/>
	<path class="st0" d="M1694.56,223.12c8.4,7.07,18.5,10.92,28.97,14.62c9.83,3.47,19.63,7.96,24.49,17.78
		c-7.19,18.72-26.49,19.89-41.65,24.77c-47.74,15.38-93.36,35.45-139.94,53.38c-6.28,2.42-13.27,6.19-16.79,11.24
		c-7.05,10.12-16.71,11.31-27.73,10.97"/>
	<path class="st0" d="M643.25,1929.76c-24.43,21.15-34.34,48.86-39.18,78.39c-9.49,57.8,36.74,93.74,81.99,108.56
		c20.25,6.63,41.58,9.04,63.18,8.19"/>
	<path class="st0" d="M802.23,424.66c-3.9,17.72-20.52,28.56-27.53,44.72c-4.52,10.42-0.26,20.38,12.15,20.56
		c27.98,0.4,56.28,4.4,83.8-4.38c4.26-1.36,9.07-1.56,13.63-1.65c31.34-0.65,62.68-1.17,94.02-1.63c6.68-0.1,13.99-1.83,18.43,7.34
		c-8.61,17.93-30.88,28.4-42.36,47.01"/>
	<path class="st0" d="M554.36,987.67c-19.52,12.57-26.72,33.38-37.15,51.42c-25.57,44.2-53.45,86.42-94.56,119.64
		c-6.96,5.62-13.5,15.06-23.72,12.42c-11.19-2.9-12.99-14.03-15.55-23.52c-3.41-12.63-0.79-26.18-6.81-38.39"/>
	<path class="st0" d="M1282.58,710.96c-26.91-0.01-51.69,9.05-76.89,16.1c-11.03,3.09-22.02,6.69-32.41,11.3
		c-8.5,3.77-15.12-2.81-24.2-0.83c-51.9,11.28-95.77,37.35-140,63.03c-18.69,10.84-36.71,22.65-56.35,32.11
		c-17.64,8.49-29.22,0.03-30.77-17.74c-0.78-8.94,2.14-18.64-7.23-25.69c-3.73,1.57-8.61,2.37-11.5,5.04
		c-25.55,23.59-51.46,46.88-73.67,73.42c-18.95,22.65-36.87,46.11-59.79,65.62c-17.36,14.78-31.21,11.04-35.6-11.27
		c-3.83-19.46-4.88-39.4-7.16-59.13"/>
	<path class="st0" d="M1550.96,1937.76c11.86,8.09,11.31,20.83,11.6,32c0.81,31.96,2.7,63.87,1.03,95.99
		c-1.44,27.62-0.02,55.46-2.4,83.14c-4.29,50.04-1.57,100.36-5.62,150.32c-3.03,37.33-1.41,74.85-6.44,111.99
		c-6.12,45.17-4.12,90.84-10.26,135.96c-3.28,24.08-7.85,48-11.84,71.99"/>
	<path class="st0" d="M1829.6,122.36c7.29,11.04,19.92,15.77,30.92,22.17c8.02,4.66,14.23,10.23,20.39,17.04
		c-12.34,17-31.44,17.27-47.97,21.29c-28.21,6.86-56.7,13.21-85.46,17.53c-28.05,4.21-51.65,21.04-80.27,22.93
		c-2.39,0.16-4.57,3.01-6.85,4.61"/>
	<path class="st0" d="M725.3,877.31c-6.03,3.32-11.08,6.55-15.93,12.4c-35.58,42.91-61.76,91.63-96.43,135.08
		c-4.61,5.77-9.72,11.4-14.47,17.02c-8.85,10.46-13.04,9.12-22.07-1.21c-7.16-8.19-9.52-18.38-11.01-27.44
		c-2.11-12.86-11.21-24.56-7.61-38.28"/>
	<path class="st0" d="M1337.28,870.91c7.82,2.01,9.86,9.48,11.52,14.52c14.13,42.88,31.76,84.62,45.35,127.71
		c11.56,36.64,23.48,73.1,32.13,110.47c6.31,27.3,13,54.54,20.56,81.55c8.31,29.68,15.7,59.84,20.9,89.79
		c7.03,40.47,17.61,80.36,22.43,121.3c3.29,27.86,7.66,56.01,16.16,83.3c5.32,17.09,1.58,35.5,6.98,52.74
		c0.31,0.98,0.54,2.61-0.03,3.12c-12.06,10.76-10.93,20.81-0.36,32.41c3.33,3.66,1.57,11.39,2.14,17.25"/>
	<path class="st0" d="M2079.18,51.98c-12.29,13.14-31.12,11.14-46.46,14.89c-20.92,5.1-41.42,12.08-62.87,15.88
		c-23.7,4.2-46.65,11.93-70.2,17.05c-24.52,5.33-49.47,8.68-71.98,20.59c-4.75,2.51-12.31,0.37-18.58,0.37"/>
	<path class="st0" d="M2821.08,2607.94c-25.64,0-51.28,0.08-76.92-0.02c-27.39-0.11-54.67-0.49-82.11-2.46
		c-31.66-2.27-63.76,0.89-95.67,1.69"/>
	<path class="st0" d="M603.93,2732.7c-22.79-0.53-45.6-1.8-68.37-1.46c-63.42,0.95-126.62,5.47-189.76,10.99
		c-22.75,1.99-45.57,3.38-68.38,4.73c-3.19,0.19-5.01,1.41-6.83,3.33"/>
	<path class="st0" d="M1062.06,1016.46c-4.78,16.82-7.93,33.87-11.09,51.05c-6.67,36.16-3.64,73.13-12.72,108.92
		c-3.03,11.94-11.18,16.28-22.2,9.38c-8.67-5.43-16.11-12.58-24.07-19.01c-10.08-8.14-15.97-20.18-28.91-25.89
		c-4.14-1.83-5.87-7.42-5.28-12.49"/>
	<path class="st0" d="M422.73,423.06c16.84,15.46,37.07,8.35,54.54,4.2c42.81-10.15,83.26-27.43,125.15-40.43
		c11.82-3.66,25.68-8.65,39.23-2.11c-0.92,18.37-17.77,28.44-25.87,43.08c-9.59,17.34-5.62,23.93,15.5,24.05
		c26.7,0.14,51.32-9.77,77.03-13.8c24.29-3.81,46.86-13.43,71.64-15.49c11.91-0.99,22.92,0.13,34.24,2.1"/>
	<path class="st0" d="M1819.35,2691.11c-41.63,0-83.22-0.2-124.8,3.07c-96.12,7.56-192.48,8.62-288.89,8.45
		c-15.93-0.03-32.49,0.16-47.86,6.07"/>
	<path class="st0" d="M961.21,1142.82c-5.66,5.47-5.04,12.34-5.18,19.19c-0.83,38.92,2.21,77.89-1.73,116.76
		c-1.2,11.78-3.06,23.51-5.13,35.18c-2,11.28-14.77,15.87-23.63,7.8c-7.99-7.28-17.71-12.17-25.76-19.08
		c-3.61-3.11-6.92-6.09-12.04-4.63c-6.76,1.94-5.88,8.11-6.69,12.75c-1.66,9.48-1.04,19.28-1.26,28.78
		c-0.55,23.61-8.24,46.57-6.02,70.39c0.68,7.32-1.18,15.12-3.33,22.32c-2.99,9.99-13.26,12.98-21.91,6.32
		c-9.69-7.46-16.93-17.7-29.17-22.26"/>
	<path class="st0" d="M2233.03,2801.48c-56.98-2.66-113.96-5.35-170.94-7.99c-51.93-2.41-103.72,2.29-155.54,3.84
		c-32.42,0.97-65.41-2.1-97.46,5.75"/>
	<path class="st0" d="M1215.91,874.11c-19.41,16.46-31.25,38-42.35,59.35c-16.84,32.39-31.09,65.97-46.57,98.98
		c-7.92,16.89-17.51,18.47-32.54,6.51c-10.16-8.09-16.52-20.22-30.53-24.52c-2.21-0.68-2.43-7.03-3.57-10.77"/>
	<path class="st0" d="M1345.83,1592.27c15.7-20.39,9.88-39.79-17.12-55.94c-20.05-11.99-41.4-10.55-61.35-1.32
		c-23.21,10.74-38.31,28.18-37.69,54.06c0.39,16.26,11.63,25.77,27.25,23.93c0.07-0.01,0.12-1.03-0.02-1.53
		c-0.16-0.56-0.54-1.07-0.82-1.61"/>
	<path class="st0" d="M1150.96,1646.66c11.6-27.82,1.94-45.4-30.77-55.98c-41.81-13.53-82.35,8.83-88.65,49.62
		c-1.75,11.35-2.29,23.81,13.44,28.76"/>
	<path class="st0" d="M1545.84,2801.48c-28.12,3.57-55.81-2.62-83.76-3.41c-41.3-1.16-82.16,3.23-123.03,7.11
		c-5.53,0.52-10.31-1.73-15.44-0.51"/>
	<path class="st0" d="M913.34,2817.47c-47.91,2.57-95.86,3.3-143.69,8.92c-28.45,3.34-56.64,9.09-85.38,10.16
		c-5.58,0.21-3.16,4.56-5.12,6.52"/>
	<path class="st0" d="M2009.1,918.9c0.57,2.66-1.29,5.62,1.68,8.03c32.5,26.36,47.91,63.97,71.35,96.24
		c22.29,30.68,44.93,60.66,73.28,87.08c12.67-5.09,16.27-15.03,17.48-25.03c1.51-12.41-0.96-25.15,10.19-35.51
		c2.56-2.38,0.38-9.24,0.38-14.04"/>
	<path class="st0" d="M2185.17,1050.05c15.41,4.78,21.5,18.5,30.54,28.96c36.11,41.83,76.55,79.73,118.31,116.46
		c5.33,4.69,11.96,8.86,20.39,6.53"/>
	<path class="st0" d="M1328.74,712.56c-6.82,10.52-13.37,21.01-15.57,33.56c-1.54,8.81-7.55,12.14-16.92,8.05
		c-2.78-1.21-5.67-3.05-8.54-3.09c-36.39-0.52-75.98,33.7-80.44,68.63c-2.75,21.59-0.53,41.49,17.18,57.6
		c23.97,21.81,69.18,23.46,95.93,5.03c17.45-12.02,23.4-29.67,31.43-46.63"/>
	<path class="st0" d="M2029.61,1526.69c25.55,27.7,34.18,59.7,31.31,96.01c-1.43,18.02-2.68,35.66-9.09,52.74"/>
	<path class="st0" d="M515.04,2068.92c-8.22,34.49,15.2,86.62,54.72,105.53c11.41,5.46,23.87,2.61,35.88,3.24"/>
	<path class="st0" d="M1329.59,765.35c3.62,12.79,17.27,20.98,18.31,35.17c0.13,1.78,1.86,4.5,1.2,6.38
		c-3.39,9.69-3.25,22.31,4.1,26.4c12.63,7.02,25.48,14.41,42.11,16.03c26.11,2.55,48.06-7.3,62.23-22.49
		c17.88-19.17,18.13-45.11,10.26-71.23c-7.86-26.09-31.68-33.47-52.35-40.19c-19.23-6.25-42.11-2.45-61.29,9.67
		c-6.3,3.98-8.77,9.22-11.7,14.71c-4.33,8.11-8.26,16.4-11.99,23.88c-9.01,3.02-12.43-5.25-18.83-7.92"/>
	<path class="st0" d="M1034.71,1515.5c-27.22,24.99-46.95,54.24-60.18,87.85c-6.01,15.27-12.26,29.93-9.9,46.51"/>
	<path class="st0" d="M1453.53,1608.27c21.18,2.8,42.28,2.81,64.5-1.85c9.9,8.25,9.1,14.94-0.97,24.5
		c-24.08,22.86-50.64,42.62-78.96,60.47c-8.7,5.49-18.02,9.93-29.02,9.65"/>
	<path class="st0" d="M1368.05,1686.64c23.63-17.29,34.89-41.85,44.18-67.26c2.96-8.1,3.32-16.81-1.21-25.62
		c-7.5-14.59-5.74-16.58,11.7-20.8c4.12-0.99,7.85-3.4,12.95-5.7c5.26,9.99,17.28,11.88,25.48,19.92
		c-6.07,7.93-5.06,20.11-19.49,23.15c-5.11,1.08-7.65,7.7-8.92,13.89c-4.04,19.71-10.67,38.72-22.01,56
		c-0.82,1.25-3.35,2.31-3.22,3.2c4.76,31.05-25.74,32.45-43.33,42.55c-21.54,12.37-45.59,22.02-69.84,28.88
		c-27.68,7.83-53.43,20.84-81.9,26.01c-15.91,2.89-30.07,10.22-46.03,13.37c-28.94,5.71-58.2,10.01-86.97,15.42
		c-30.5,5.73-60.36,8.06-90.91,8.06c-12.24,0-25.05,0.75-34.19-9.5"/>
	<path class="st0" d="M1651.82,1374.75c-29.49,11.88-61.14,15.43-92.31,20.77c-10.23,1.75-20.51,3.22-30.77,4.82"/>
	<path class="st0" d="M1027.88,1544.29c-12.11,24.24-26.05,47.73-34.18,73.58c-4.02,12.79-7.98,25.59-11.97,38.38"/>
	<path class="st0" d="M1805.67,2246.46c-12.8-5.01-25.44,0.71-37.51,2.29c-27.35,3.58-54.87,2.8-82.16,5.7"/>
	<path class="st0" d="M1686.01,2046.52c-39.44,0.16-78.41,7.93-117.95,6.4"/>
	<path class="st0" d="M1282.58,1846.59c12.49,18.19,21.17,20.66,34.18,9.58c7.05-6,10.65-13.58,8.38-22.33
		c-1.78-6.87-8.26-10.6-15.22-10.99c-9.16-0.51-18.43,1.42-23.71,9.47c-2.34,3.58-2.48,8.42-3.62,12.68"/>
	<path class="st0" d="M856.93,1937.76c16.51,13.02,37.14,6.61,41.01-12.8c1.52-7.65-2.49-15.49-8.7-16.96
		c-9.74-2.33-20.42-0.62-27.28,8.91c-4.27,5.94-7.53,11.9-6.74,19.25"/>
	<path class="st0" d="M1697.98,1646.66c2.61,8.99,7.43,16.4,18.75,14.17c10.89-2.15,20.96-7.6,25.32-17.52
		c2.92-6.65,0.37-14.47-6.57-18.9c-6.32-4.03-14.98-3.29-20.07,0.27c-7.58,5.3-15.61,11.28-19.14,20.38"/>
	<path class="st0" d="M1284.29,1704.24c-22.82-5.63-43.64,3.79-64.87,8.36c-15.55,3.34-30.12,10.51-46.24,12.44"/>
	<path class="st0" d="M1085.14,1680.24c-5.82-8.02-11.16-17.59-23.07-17.36c-16.4,0.33-25.62,18.47-15.11,31.56
		c20.66,25.75,44.26,48.81,78.36,59.37"/>
	<path class="st0" d="M1812.51,2408c-37.75-1.12-73.77,10.85-111.11,12.78c-2.84,0.15-5.7,0.02-8.55,0.02"/>
	<path class="st0" d="M1075.74,1757.82c-12.8,5.65-24.09,3.02-34.18-5.61c-8.03-6.87-16.39-13.48-23.79-20.91
		c-4.85-4.87-7.19-9.72-2.41-17.75c6.59-11.07,0.88-16.68-13.12-15.71c-0.57,0.04-1.15-0.04-1.71,0.01
		c-19.38,2.02-20.87,3.01-37.59,26.35c26.33,5.71,39.71,25.52,57.25,41.61c14.92,13.69,31.31,29.92,55.56,31.2"/>
	<path class="st0" d="M1658.66,2348.82c-33.23,6.95-66.94,8.65-100.86,8"/>
	<path class="st0" d="M1161.21,1656.25c7.07,5.55,7.87,13.16,6.73,20.78c-3.79,25.21-14.36,48.24-27.47,70.28
		c-1.16,1.94-5.47,2.25-8.32,3.31"/>
	<path class="st0" d="M1250.1,1619.46c-10.91,17.24-11.29,22.26,1.88,36.65c12.3,13.44,26.04,25.73,39.15,38.52"/>
	<path class="st0" d="M1744.13,1899.37c-26.41,9.56-54.81,7.9-82.05,12.8"/>
	<path class="st0" d="M1521.9,1162.02c-24.9,8.69-50.87,13.31-76.93,17.59"/>
	<path class="st0" d="M1352.67,1603.47c8.81,10.83,8.37,21.54,1.96,33.7c-9.29,17.64-16.55,35.68-30.17,51.7
		c-9.55,11.23-16.69,11.85-29.81,7.27c-18.07,16.84-27.41,37.54-25.74,62.48"/>
	<path class="st0" d="M1525.32,1005.27c-23.82,5.3-47.21,12.43-71.8,14.4"/>
	<path class="st0" d="M1636.44,2084.91c-1.32,3.93-3.7,6.8-8.54,6.37c-20.13-1.79-39.86,2.71-59.83,3.23"/>
	<path class="st0" d="M1147.54,1739.42c11.43,5.58,25.39,2.85,36.33,12.36c9.89,8.6,17.98,17.2,21.79,29.23"/>
	<path class="st0" d="M1576.61,1491.51c-22.35,2.44-44.84,4.01-66.67,9.6"/>
	<path class="st0" d="M1809.09,2460.79c-22.91-4.16-44.51,3.71-66.67,6.4"/>
	<path class="st0" d="M1662.08,1421.13c-19.66,7.99-41.2,5.44-61.54,9.6"/>
	<path class="st0" d="M1781.74,829.32c-0.57,9.6-1.56,19.19-1.6,28.79c-0.05,11.92,1.01,23.91-8.65,33.59"/>
	<path class="st0" d="M1757.81,2284.85c-9.55,7.21-21.76,5.41-32.61,7.4c-8.28,1.52-16.87,3.45-25.52,3.8"/>
	<path class="st0" d="M1015.91,1768.22c-14.16,12.27-33.01,16.12-49.78,23.6c-4.15,1.86-6.63,4.67-10.05,6.79"/>
	<path class="st0" d="M973.17,2001.74c1.51,12.27,12.56,18.02,20.7,25.42c8.79,7.98,19.74,13.99,23.75,25.77"/>
	<path class="st0" d="M451.79,367.88c-6.22,16.34-19.9,28.94-26.13,45.43c-0.9,2.38-1.53,8.94-8.06,8.16"/>
	<path class="st0" d="M1308.22,702.97c-4.83,15.97-16,29.7-18.8,46.38"/>
	<path class="st0" d="M817.61,2019.33c6.84,9.6,13.25,19.49,20.64,28.7c6.91,8.62,18.16,4.64,27.29,6.13
		c14.57,2.38,29.57,2.42,44.38,3.58c7.72,0.6,15.06-0.67,22.23-3.22"/>
	<path class="st0" d="M1106.51,2003.34c9.04,6.4,14.56,16.08,25.43,21.19c8.34,3.92,10.98,12.95,10.47,21.99"/>
	<path class="st0" d="M894.54,2011.34c7.02-8.77,17.17-2.94,25.62-4.88c12.07-2.77,13.78,6.42,19.09,12.68
		c7.48,8.79,16.62,16.4,25.47,24.1c3.72,3.23,6.85,6.28,6.74,11.29"/>
	<path class="st0" d="M1056.94,2004.94c4.54,9.96,13.19,16.55,22.34,22.23c7.86,4.88,12.7,11.16,15.27,19.36"/>
	<path class="st0" d="M1627.89,1301.17c-13.28,8.94-30.74,5.17-44.45,12.8"/>
	<path class="st0" d="M1410.79,906.1c-13.14,9.35-30.62,5.51-44.45,12.8"/>
	<path class="st0" d="M1506.52,958.88c-14.1,4.21-27.7,10.09-42.74,11.2"/>
	<path class="st0" d="M858.64,2017.73c5.96,10.8,15.21,18.91,25.8,25.36c4.58,2.79,5.04,5.79,4.97,9.83"/>
	<path class="st0" d="M1501.39,1245.19c-13.11,5.33-28.26,2.97-41.03,9.6"/>
	<path class="st0" d="M1470.62,1125.23c-12.54,2.66-25.07,5.33-37.61,8"/>
	<path class="st0" d="M1078.3,1753.82c7,9.42,10.96,17.73,1.74,29.4c-3.32,4.19-5.87,15.38-0.88,23.38"/>
	<path class="st0" d="M1239.85,834.12c-3.32,8.37-1.03,17.07-1.71,25.59"/>
	<path class="st0" d="M1340.7,1673.85c18.61,9.4,36.17,19.9,46.16,38.39"/>
	<path class="st0" d="M1086,1881.78c-19.66,12.71-23.14,26.05-8.34,34.89c4.97,2.97,11.89,6.92,18.71,0.41
		c7.42-7.08,19.15-11.86,16.71-24.05c-1.94-9.71-10.14-12.72-20.25-11.28c-1.67,0.24-3.41,0.04-5.12,0.04"/>
	<path class="st0" d="M1530.45,1734.63c-5.13,3.2-10.79,5.86-15.27,9.71c-8.51,7.32-10.41,16.73-3.29,25.3
		c7.13,8.59,17.11,8.9,27.11,3.37c16.78-9.28,19.91-20.26,12.38-32.22c-5.43-8.63-12.46-5.3-19.22-6.17"/>
</g>
</svg>
